<?xml version="1.0"?>
<svg xmlns="http://www.w3.org/2000/svg" height="60px" viewBox="0 0 256 256" width="60px" class=""><g><g fill="#846f75"><path d="m128 76.941a2.5 2.5 0 0 0 -2.5 2.5v97.118a2.5 2.5 0 0 0 5 0v-97.118a2.5 2.5 0 0 0 -2.5-2.5z" data-original="#846F75" class="active-path" style="fill:#000000" data-old_color="#846F75"/><path d="m106.916 52.6h-51.816a2.5 2.5 0 0 0 -2.5 2.5v48.558a2.5 2.5 0 0 0 5 0v-46.058h49.32a2.5 2.5 0 0 0 0-5z" data-original="#846F75" class="active-path" style="fill:#000000" data-old_color="#846F75"/><path d="m200.9 52.6h-51.82a2.5 2.5 0 0 0 0 5h49.32v46.058a2.5 2.5 0 0 0 5 0v-48.558a2.5 2.5 0 0 0 -2.5-2.5z" data-original="#846F75" class="active-path" style="fill:#000000" data-old_color="#846F75"/><path d="m200.9 149.846a2.5 2.5 0 0 0 -2.5 2.5v6a2.5 2.5 0 0 0 5 0v-6a2.5 2.5 0 0 0 -2.5-2.5z" data-original="#846F75" class="active-path" style="fill:#000000" data-old_color="#846F75"/><path d="m200.9 168.032a2.5 2.5 0 0 0 -2.5 2.5v12.186a2.5 2.5 0 0 0 5 0v-12.186a2.5 2.5 0 0 0 -2.5-2.5z" data-original="#846F75" class="active-path" style="fill:#000000" data-old_color="#846F75"/><path d="m200.9 192.4a2.5 2.5 0 0 0 -2.5 2.5v3.5h-3.5a2.5 2.5 0 0 0 0 5h6a2.5 2.5 0 0 0 2.5-2.5v-6a2.5 2.5 0 0 0 -2.5-2.5z" data-original="#846F75" class="active-path" style="fill:#000000" data-old_color="#846F75"/><path d="m181.631 198.4h-13.274a2.5 2.5 0 1 0 0 5h13.274a2.5 2.5 0 0 0 0-5z" data-original="#846F75" class="active-path" style="fill:#000000" data-old_color="#846F75"/><path d="m155.084 198.4h-6a2.5 2.5 0 0 0 0 5h6a2.5 2.5 0 0 0 0-5z" data-original="#846F75" class="active-path" style="fill:#000000" data-old_color="#846F75"/><path d="m55.1 160.846a2.5 2.5 0 0 0 2.5-2.5v-6a2.5 2.5 0 0 0 -5 0v6a2.5 2.5 0 0 0 2.5 2.5z" data-original="#846F75" class="active-path" style="fill:#000000" data-old_color="#846F75"/><path d="m55.1 185.218a2.5 2.5 0 0 0 2.5-2.5v-12.186a2.5 2.5 0 0 0 -5 0v12.186a2.5 2.5 0 0 0 2.5 2.5z" data-original="#846F75" class="active-path" style="fill:#000000" data-old_color="#846F75"/><path d="m61.1 198.4h-3.5v-3.5a2.5 2.5 0 0 0 -5 0v6a2.5 2.5 0 0 0 2.5 2.5h6a2.5 2.5 0 1 0 0-5z" data-original="#846F75" class="active-path" style="fill:#000000" data-old_color="#846F75"/><path d="m87.643 198.4h-13.274a2.5 2.5 0 0 0 0 5h13.274a2.5 2.5 0 1 0 0-5z" data-original="#846F75" class="active-path" style="fill:#000000" data-old_color="#846F75"/><path d="m106.916 198.4h-6a2.5 2.5 0 0 0 0 5h6a2.5 2.5 0 0 0 0-5z" data-original="#846F75" class="active-path" style="fill:#000000" data-old_color="#846F75"/></g><path d="m150.334 40.758-21.084-12.173a2.5 2.5 0 0 0 -2.5 0l-21.084 12.173a2.5 2.5 0 0 0 -1.25 2.165v24.345a2.5 2.5 0 0 0 1.25 2.165l21.084 12.173a2.5 2.5 0 0 0 2.5 0l21.084-12.173a2.5 2.5 0 0 0 1.25-2.165v-24.345a2.5 2.5 0 0 0 -1.25-2.165zm-22.334-7.121 16.084 9.286-16.084 9.286-16.084-9.286zm0 42.917-18.584-10.729v-18.572l17.334 10.008a2.5 2.5 0 0 0 2.5 0l17.334-10.008v18.572z" fill="#a58bc9" data-original="#A58BC9" class="" style="fill:#E9204F" data-old_color="#a58bc9"/><path d="m150.334 186.567-21.084-12.173a2.5 2.5 0 0 0 -2.5 0l-21.084 12.173a2.5 2.5 0 0 0 -1.25 2.165v24.345a2.5 2.5 0 0 0 1.25 2.165l21.084 12.173a2.5 2.5 0 0 0 2.5 0l21.084-12.173a2.5 2.5 0 0 0 1.25-2.165v-24.345a2.5 2.5 0 0 0 -1.25-2.165zm-22.334-7.121 16.084 9.286-16.084 9.286-16.084-9.286zm0 42.917-18.584-10.729v-18.572l17.334 10.007a2.5 2.5 0 0 0 2.5 0l17.334-10.007v18.572z" fill="#a58bc9" data-original="#A58BC9" class="" style="fill:#E9204F" data-old_color="#a58bc9"/><path d="m223.238 113.662-21.084-12.173a2.5 2.5 0 0 0 -2.5 0l-21.084 12.173a2.5 2.5 0 0 0 -1.25 2.165v24.346a2.5 2.5 0 0 0 1.25 2.165l21.084 12.172a2.5 2.5 0 0 0 2.5 0l21.084-12.172a2.5 2.5 0 0 0 1.25-2.165v-24.346a2.5 2.5 0 0 0 -1.25-2.165zm-22.338-7.121 16.085 9.286-16.085 9.286-16.084-9.286zm0 42.917-18.58-10.729v-18.572l17.334 10.008a2.5 2.5 0 0 0 2.5 0l17.334-10.008v18.572z" fill="#a58bc9" data-original="#A58BC9" class="" style="fill:#E9204F" data-old_color="#a58bc9"/><path d="m77.43 113.662-21.084-12.173a2.5 2.5 0 0 0 -2.5 0l-21.084 12.173a2.5 2.5 0 0 0 -1.25 2.165v24.346a2.5 2.5 0 0 0 1.25 2.165l21.084 12.172a2.5 2.5 0 0 0 2.5 0l21.084-12.172a2.5 2.5 0 0 0 1.25-2.165v-24.346a2.5 2.5 0 0 0 -1.25-2.165zm-22.33-7.121 16.083 9.286-16.083 9.286-16.084-9.286zm0 42.917-18.588-10.729v-18.572l17.334 10.008a2.5 2.5 0 0 0 2.5 0l17.334-10.008v18.572z" fill="#a58bc9" data-original="#A58BC9" class="" style="fill:#E9204F" data-old_color="#a58bc9"/></g> </svg>
